<svg height="496pt" viewBox="0 0 496 496" width="496pt" xmlns="http://www.w3.org/2000/svg"><path d="m480 136c0-22.054688-17.945312-40-40-40h-82.585938c-11.679687-30.472656-32.582031-57.0625-60.597656-75.734375l-15.0625-10.042969c-20.066406-13.367187-47.441406-13.367187-67.507812 0l-15.0625 10.042969c-28.015625 18.671875-48.917969 45.261719-60.589844 75.734375h-82.59375c-22.054688 0-40 17.945312-40 40v280h-16v40c0 22.054688 17.945312 40 40 40h416c22.054688 0 40-17.945312 40-40v-40h-16zm-40-24c13.230469 0 24 10.769531 24 24v280h-16v-272c0-8.824219-7.175781-16-16-16h-66.070312c-.867188-5.40625-1.976563-10.753906-3.378907-16zm-96 216v88h-88v-9.472656c9.289062-3.3125 16-12.113282 16-22.527344v-16c0-10.414062-6.710938-19.214844-16-22.527344v-10.023437c34.238281-4.738281 55.769531-38.648438 61.566406-48.929688l42.816406 9.175781c18.320313 3.929688 31.617188 20.367188 31.617188 39.113282v81.191406h-32v-88zm-208 0v88h-32v-81.191406c0-18.738282 13.296875-35.183594 31.617188-39.113282l42.816406-9.175781c5.847656 10.351563 27.398437 44.191407 61.566406 48.921875v10.03125c-9.289062 3.3125-16 12.113282-16 22.527344v16c0 10.414062 6.710938 19.214844 16 22.527344v9.472656h-88v-88zm11.519531-98.167969 22.9375 42.03125-38.183593 8.183594c-25.65625 5.496094-44.273438 28.527344-44.273438 54.761719v81.191406h-24v-272h64.289062c-.175781 3.078125-.289062 6.167969-.289062 9.28125 0 26.664062 6.753906 53.132812 19.519531 76.550781zm100.480469 162.167969c-4.40625 0-8-3.59375-8-8v-16c0-4.40625 3.59375-8 8-8s8 3.59375 8 8v16c0 4.40625-3.59375 8-8 8zm8-88.511719c21.054688-2.519531 31.65625-14.609375 36.359375-22.367187l8.640625 1.847656c-6.929688 10.878906-22.929688 31.847656-45 36.167969zm24-63.488281v-40h-16v40h-32v-40h-16v40h-16v-42.273438l-2.398438-2.351562c-14.097656-13.832031-21.769531-32.296875-21.601562-51.992188.320312-38.191406 31.609375-70.199218 69.761719-71.351562.75-.023438 1.503906-.03125 2.253906-.03125 18.832031 0 36.558594 7.167969 50.121094 20.320312 14.09375 13.679688 21.863281 32.03125 21.863281 51.679688 0 19.464844-7.671875 37.703125-21.601562 51.375l-2.398438 2.351562v42.273438zm0 16v14.449219c-1.734375 3.808593-9.535156 17.550781-32 17.550781-22.28125 0-30.175781-13.625-32-17.566406v-14.433594zm-76.359375 25.121094c4.695313 7.765625 15.304687 19.847656 36.359375 22.367187v15.648438c-21.992188-4.304688-37.96875-25.160157-44.992188-36.167969zm-11.640625 150.878906h112v8c0 4.40625-3.59375 8-8 8h-96c-4.40625 0-8-3.59375-8-8zm171.734375-151.953125-38.183594-8.183594 22.929688-42.039062c12.765625-23.417969 19.519531-49.886719 19.519531-76.550781 0-3.105469-.113281-6.203126-.289062-9.273438h64.289062v272h-24v-81.191406c0-26.234375-18.617188-49.265625-44.265625-54.761719zm-155.671875-246.472656 15.066406-10.039063c7.382813-4.925781 15.992188-7.535156 24.871094-7.535156s17.488281 2.609375 24.871094 7.527344l15.066406 10.039062c40.109375 26.753906 64.0625 71.496094 64.0625 119.714844 0 24-6.070312 47.824219-17.566406 68.886719l-25.203125 46.199219-13.230469-2.839844v-9.527344c8.824219 0 16-7.175781 16-16v-35.648438c15.503906-16.40625 24-37.703124 24-60.351562 0-24.007812-9.496094-46.441406-26.726562-63.167969-17.234376-16.710937-39.929688-25.527343-64-24.792969-46.625 1.410157-84.882813 40.535157-85.273438 87.21875-.191406 22.933594 8.304688 44.496094 24 61.101563v35.640625c0 8.824219 7.175781 16 16 16v9.527344l-13.230469 2.832031-25.203125-46.199219c-11.496094-21.0625-17.566406-44.886718-17.566406-68.886718 0-48.210938 23.953125-92.953126 64.0625-119.699219zm-176.0625 102.425781c0-13.230469 10.769531-24 24-24h77.449219c-1.402344 5.246094-2.511719 10.59375-3.378907 16h-66.070312c-8.824219 0-16 7.175781-16 16v272h-16zm448 320c0 13.230469-10.769531 24-24 24h-416c-13.230469 0-24-10.769531-24-24v-24h160v8c0 13.230469 10.769531 24 24 24h96c13.230469 0 24-10.769531 24-24v-8h160zm0 0"/><path d="m189.34375 126.671875c-4.007812 12.015625-.929688 25.054687 8.03125 34.015625 4.714844 4.710938 10.984375 7.3125 17.65625 7.3125 13.769531 0 24.96875-11.199219 24.96875-24.96875v-11.976562l-44.671875-22.335938zm15.175781 5.054687.152344-.445312 19.328125 9.664062v2.085938c0 4.945312-4.023438 8.96875-8.96875 8.96875-2.398438 0-4.648438-.9375-6.34375-2.625-4.648438-4.648438-6.238281-11.40625-4.167969-17.648438zm0 0"/><path d="m306.65625 126.671875-5.984375-17.960937-44.671875 22.34375v11.976562c0 13.769531 11.199219 24.96875 24.96875 24.96875 6.671875 0 12.941406-2.601562 17.65625-7.3125 8.960938-8.960938 12.039062-22 8.03125-34.015625zm-19.34375 22.703125c-1.695312 1.6875-3.945312 2.625-6.34375 2.625-4.945312 0-8.96875-4.023438-8.96875-8.96875v-2.085938l19.328125-9.664062.152344.453125c2.070312 6.234375.480469 12.992187-4.167969 17.640625zm0 0"/><path d="m0 0h16v16h-16zm0 0"/><path d="m32 0h16v16h-16zm0 0"/><path d="m64 0h16v16h-16zm0 0"/><path d="m96 0h16v16h-16zm0 0"/><path d="m0 32h16v16h-16zm0 0"/><path d="m32 32h16v16h-16zm0 0"/><path d="m64 32h16v16h-16zm0 0"/><path d="m0 64h16v16h-16zm0 0"/><path d="m32 64h16v16h-16zm0 0"/><path d="m64 64h16v16h-16zm0 0"/><path d="m96 32h16v16h-16zm0 0"/><path d="m480 0h16v16h-16zm0 0"/><path d="m448 0h16v16h-16zm0 0"/><path d="m416 0h16v16h-16zm0 0"/><path d="m384 0h16v16h-16zm0 0"/><path d="m352 0h16v16h-16zm0 0"/><path d="m480 32h16v16h-16zm0 0"/><path d="m448 32h16v16h-16zm0 0"/><path d="m416 32h16v16h-16zm0 0"/><path d="m480 64h16v16h-16zm0 0"/><path d="m448 64h16v16h-16zm0 0"/><path d="m416 64h16v16h-16zm0 0"/><path d="m384 32h16v16h-16zm0 0"/><path d="m128 0h16v16h-16zm0 0"/><path d="m160 0h16v16h-16zm0 0"/></svg>